<svg xmlns="http://www.w3.org/2000/svg" width="512" height="512" viewBox="0 0 512 512" role="img" aria-label="Rétractation commande">
  <defs>
    <linearGradient id="bg" x1="88" y1="424" x2="424" y2="88" gradientUnits="userSpaceOnUse">
      <stop offset="0" stop-color="#0f766e"/>
      <stop offset="1" stop-color="#22c55e"/>
    </linearGradient>
    <filter id="shadow" x="-20%" y="-20%" width="140%" height="140%">
      <feDropShadow dx="0" dy="12" stdDeviation="14" flood-color="#064e3b" flood-opacity="0.22"/>
    </filter>
  </defs>
  <rect x="16" y="16" width="480" height="480" rx="110" fill="url(#bg)"/>
  <g filter="url(#shadow)">
    <path d="M146 106h174l88 88v212H146z" fill="#ffffff"/>
    <path d="M320 106v88h88z" fill="#bbf7d0"/>
    <rect x="188" y="224" width="178" height="28" rx="14" fill="#10b981"/>
    <rect x="188" y="286" width="178" height="28" rx="14" fill="#10b981"/>
    <rect x="188" y="348" width="112" height="28" rx="14" fill="#10b981"/>
    <g transform="translate(322 330) scale(1.55)">
      <rect width="64" height="64" rx="15" fill="#12160f"/>
      <path d="M32 61 V27" stroke="#6f8f57" stroke-width="5" stroke-linecap="round" fill="none"/>
      <path d="M32 35 C17 33 13 20 15 13 C26 13 33 22 32 35Z" fill="#6f8f57"/>
      <path d="M32 28 C47 25 51 12 49 6 C38 7 31 16 32 28Z" fill="#9db17f"/>
    </g>
  </g>
</svg>
